<?xml version="1.0" encoding="UTF-8"?>
<!DOCTYPE svg PUBLIC "-//W3C//DTD SVG 1.1//EN" "http://www.w3.org/Graphics/SVG/1.1/DTD/svg11.dtd">
<!-- Creator: CorelDRAW 2019 (64 Bit Versão de avaliação) -->
<svg xmlns="http://www.w3.org/2000/svg" xml:space="preserve" width="67.7332mm" height="67.7332mm" version="1.1" style="shape-rendering:geometricPrecision; text-rendering:geometricPrecision; image-rendering:optimizeQuality; fill-rule:evenodd; clip-rule:evenodd"
viewBox="0 0 6773.32 6773.32"
 xmlns:xlink="http://www.w3.org/1999/xlink">
 <defs>
  <style type="text/css">
   <![CDATA[
    .str0 {stroke:black;stroke-width:84.67;stroke-miterlimit:22.9256}
    .str1 {stroke:black;stroke-width:87.71;stroke-miterlimit:22.9256}
    .fil2 {fill:#990099}
    .fil1 {fill:#9900CC}
    .fil0 {fill:#FE00E8}
   ]]>
  </style>
 </defs>
 <g id="Camada_x0020_1">
  <metadata id="CorelCorpID_0Corel-Layer"/>
  <g id="_1595470928864">
   <path class="fil0 str0" d="M3225.79 676.97c552.41,0 1064.71,171.36 1486.98,463.61l-1664.78 2177.99 -10.95 2583.97c-1356.77,-96.74 -2427.45,-1227.96 -2427.45,-2609.37 0,-1444.89 1171.31,-2616.2 2616.2,-2616.2z"/>
   <path class="fil1 str1" d="M5099.84 1131.92c626.57,494.38 1028.82,1260.48 1028.82,2120.55l-2469.45 0 -230.22 -8.44 1670.85 -2112.11z"/>
   <path class="fil2 str1" d="M3348.46 3520.69l2778.63 0c0.93,28.08 1.57,56.23 1.57,84.53 0,1424.72 -1183.79,2579.68 -2644.07,2579.68 -45.66,0 -91.05,-1.13 -136.13,-3.35l0 -2660.86z"/>
  </g>
 </g>
</svg>
