<?xml version="1.0" encoding="UTF-8"?>
<!DOCTYPE svg PUBLIC "-//W3C//DTD SVG 1.1//EN" "http://www.w3.org/Graphics/SVG/1.1/DTD/svg11.dtd">
<!-- Creator: CorelDRAW 2019 (64 Bit Versão de avaliação) -->
<svg xmlns="http://www.w3.org/2000/svg" xml:space="preserve" width="67.7332mm" height="21.1666mm" version="1.1" style="shape-rendering:geometricPrecision; text-rendering:geometricPrecision; image-rendering:optimizeQuality; fill-rule:evenodd; clip-rule:evenodd"
viewBox="0 0 6773.32 2116.66"
 xmlns:xlink="http://www.w3.org/1999/xlink">
 <defs>
  <style type="text/css">
   <![CDATA[
    .fil2 {fill:#999999}
    .fil4 {fill:#B3B3B3}
    .fil3 {fill:#E6E6E6}
    .fil1 {fill:white}
    .fil7 {fill:#9900CC;fill-rule:nonzero}
    .fil5 {fill:#AD00CC;fill-rule:nonzero}
    .fil6 {fill:fuchsia;fill-rule:nonzero}
    .fil0 {fill:white;fill-rule:nonzero}
   ]]>
  </style>
    <mask id="id0">
  <linearGradient id="id1" gradientUnits="userSpaceOnUse" x1="234" y1="1411.32" x2="1019.88" y2="823.87">
   <stop offset="0" style="stop-opacity:1; stop-color:white"/>
   <stop offset="1" style="stop-opacity:0; stop-color:white"/>
  </linearGradient>
     <rect style="fill:url(#id1)" x="413.02" y="788.91" width="304.07" height="479.28"/>
    </mask>
    <mask id="id2">
  <linearGradient id="id3" gradientUnits="userSpaceOnUse" x1="866.21" y1="1271.7" x2="1652.96" y2="691.36">
   <stop offset="0" style="stop-opacity:1; stop-color:white"/>
   <stop offset="1" style="stop-opacity:0; stop-color:white"/>
  </linearGradient>
     <rect style="fill:url(#id3)" x="925.32" y="476.64" width="376.1" height="583.72"/>
    </mask>
    <mask id="id4">
  <linearGradient id="id5" gradientUnits="userSpaceOnUse" x1="1550.26" y1="1322.86" x2="2414.71" y2="616">
   <stop offset="0" style="stop-opacity:1; stop-color:white"/>
   <stop offset="1" style="stop-opacity:0; stop-color:white"/>
  </linearGradient>
     <rect style="fill:url(#id5)" x="1465.09" y="242.44" width="909.8" height="1394.54"/>
    </mask>
    <mask id="id6">
  <linearGradient id="id7" gradientUnits="userSpaceOnUse" x1="2480.22" y1="216.52" x2="2702.49" y2="778.75">
   <stop offset="0" style="stop-opacity:1; stop-color:white"/>
   <stop offset="1" style="stop-opacity:0; stop-color:white"/>
  </linearGradient>
     <rect style="fill:url(#id7)" x="2496" y="251.39" width="395.37" height="447.1"/>
    </mask>
     <mask id="id8">
  <linearGradient id="id9" gradientUnits="userSpaceOnUse" x1="2442.66" y1="988.9" x2="3184.33" y2="925.93">
   <stop offset="0" style="stop-opacity:1; stop-color:white"/>
   <stop offset="1" style="stop-opacity:0; stop-color:white"/>
  </linearGradient>
      <rect style="fill:url(#id9)" x="2501.9" y="726.65" width="389.44" height="447.11"/>
     </mask>
     <mask id="id10">
  <linearGradient id="id11" gradientUnits="userSpaceOnUse" x1="2545.65" y1="1512.56" x2="3159.89" y2="1028.8">
   <stop offset="0" style="stop-opacity:1; stop-color:white"/>
   <stop offset="1" style="stop-opacity:0; stop-color:white"/>
  </linearGradient>
      <rect style="fill:url(#id11)" x="2501.9" y="1163.83" width="389.44" height="447.11"/>
     </mask>
    <mask id="id12">
  <linearGradient id="id13" gradientUnits="userSpaceOnUse" x1="2010.11" y1="575.5" x2="2884.59" y2="542.09">
   <stop offset="0" style="stop-opacity:1; stop-color:white"/>
   <stop offset="1" style="stop-opacity:0; stop-color:white"/>
  </linearGradient>
     <rect style="fill:url(#id13)" x="1989.47" y="247.65" width="611.44" height="450.84"/>
    </mask>
    <mask id="id14">
  <linearGradient id="id15" gradientUnits="userSpaceOnUse" x1="3658.16" y1="499.36" x2="2683.71" y2="475.1">
   <stop offset="0" style="stop-opacity:1; stop-color:white"/>
   <stop offset="1" style="stop-opacity:0; stop-color:white"/>
  </linearGradient>
     <rect style="fill:url(#id15)" x="2779.45" y="247.65" width="611.44" height="450.84"/>
    </mask>
 </defs>
 <g id="Camada_x0020_1">
  <metadata id="CorelCorpID_0Corel-Layer"/>
  <g id="_2749297346016">
   <path class="fil0" d="M3828.88 819.42l93.04 0 -235.88 -568.46 -236.62 568.46 93.77 0 46.15 -116.48 193.39 0 46.15 116.48zm-208.77 -192.66l65.93 -165.56 65.93 165.56 -131.86 0zm888.58 192.66l0 -568.46 -255.66 380.93 -255.66 -380.93 0 568.46 84.97 0 0 -288.62 170.69 253.46 169.95 -253.46 0 288.62 85.71 0zm454.18 0l93.04 0 -235.88 -568.46 -236.62 568.46 93.77 0 46.15 -116.48 193.39 0 46.15 116.48zm-208.77 -192.66l65.93 -165.56 65.93 165.56 -131.86 0zm780.89 192.66l0 -84.98 -271.77 0 279.1 -458.57 -369.94 0 0 84.97 218.3 0 -279.1 458.58 423.41 0zm309.87 0c36.63,0 72.53,-7.33 106.22,-21.24 32.24,-13.92 60.81,-33.7 86.44,-58.61 24.91,-24.9 43.96,-53.47 57.88,-86.44 13.91,-32.96 21.24,-68.86 21.24,-105.49 0,-36.62 -7.33,-72.52 -21.24,-106.22 -13.92,-32.23 -32.97,-60.8 -57.88,-86.44 -25.63,-24.9 -54.2,-43.95 -86.44,-57.87 -33.69,-13.92 -69.59,-21.24 -106.22,-21.24 -36.62,0 -72.52,7.32 -105.48,21.24 -32.97,13.92 -61.54,32.97 -86.44,57.87 -24.91,25.64 -44.69,54.21 -58.61,86.44 -13.92,33.7 -21.24,69.6 -21.24,106.22 0,36.63 7.32,72.53 21.24,105.49 13.92,32.97 33.7,61.54 58.61,86.44 24.9,24.91 53.47,44.69 86.44,58.61 32.96,13.91 68.86,21.24 105.48,21.24zm0 -458.58c49.82,0 96.7,19.78 131.86,54.94 35.17,35.17 54.94,82.05 54.94,131.86 0,49.82 -19.77,96.7 -54.94,131.86 -35.16,35.17 -82.04,54.94 -131.86,54.94 -49.81,0 -96.69,-19.77 -131.86,-54.94 -35.16,-35.16 -54.94,-82.04 -54.94,-131.86 0,-49.81 19.78,-96.69 54.94,-131.86 35.17,-35.16 82.05,-54.94 131.86,-54.94zm794.82 483.49l0 -568.46 -85.71 0 0 348.69 -341.37 -374.33 0 569.19 84.97 0 0 -349.43 342.11 374.34z"/>
   <path class="fil0" d="M3854.96 1047.78l-384.59 0 0 76.18 149.44 0 0 467.37 85.71 0 0 -467.37 149.44 0 0 -76.18zm312.06 347.23c29.3,-10.26 49.82,-27.11 63,-41.76 28.57,-31.5 43.95,-75.45 43.95,-125.26 0,-50.55 -15.38,-94.5 -43.95,-126 -21.97,-24.91 -63.73,-54.21 -135.52,-54.21l-89.37 0 0 0 -71.79 0 0 543.55 84.97 0 0 -183.87 62.27 0 136.99 183.87 95.96 0 -146.51 -196.32zm-148.71 -63.74l0 -206.57 76.19 0c35.16,0 61.53,9.52 78.38,28.57 20.51,21.97 24.18,52.74 24.18,74.72 0,21.24 -3.67,52.01 -24.18,73.98 -16.85,19.05 -43.22,29.3 -78.38,29.3l-76.19 0zm714.23 260.06l93.04 0 -235.88 -568.46 -236.62 568.46 93.77 0 46.15 -116.48 193.39 0 46.15 116.48zm-208.77 -192.66l65.93 -165.56 65.93 165.56 -131.86 0zm712.03 -269.58c-23.44,-26.37 -52.74,-46.88 -87.17,-60.07 -35.16,-14.65 -74.72,-21.24 -118.67,-21.24l-43.96 0 0 0 -84.97 0 0 543.55 28.57 0 100.36 0c43.95,0 83.51,-7.33 118.67,-21.24 34.43,-13.19 63.73,-33.7 87.17,-60.07 43.22,-47.62 65.93,-113.55 65.93,-190.47 0,-76.91 -22.71,-142.84 -65.93,-190.46zm-63 323.79c-32.23,35.16 -79.84,53.47 -142.84,53.47l-43.96 0 0 -373.6 43.96 0c63,0 110.61,17.58 142.84,53.48 28.57,31.5 43.96,77.65 43.96,133.32 0,54.95 -15.39,101.83 -43.96,133.33zm307.67 -328.92l241.01 0 0 -76.18 -241.74 0 0 0 -84.24 0 0 543.55 84.24 0 0 0 241.74 0 0 -76.92 -241.01 0 0 -168.48 198.53 0 0 -76.92 -198.53 0 0 -145.05zm575.05 271.05c29.3,-10.26 49.82,-27.11 63,-41.76 28.57,-31.5 43.95,-75.45 43.95,-125.26 0,-50.55 -15.38,-94.5 -43.95,-126 -21.97,-24.91 -63.73,-54.21 -135.52,-54.21l-89.37 0 0 0 -71.79 0 0 543.55 84.97 0 0 -183.87 62.27 0 136.99 183.87 95.96 0 -146.51 -196.32zm-148.71 -63.74l0 -206.57 76.19 0c35.16,0 61.53,9.52 78.38,28.57 20.51,21.97 24.18,52.74 24.18,74.72 0,21.24 -3.67,52.01 -24.18,73.98 -16.85,19.05 -43.22,29.3 -78.38,29.3l-76.19 0z"/>
   <g>
    <polygon class="fil1" points="621.61,791.99 414.86,791.99 604.9,1262.81 712.52,1002.83 "/>
    <polygon class="fil1" points="610.24,792 416.03,792 415.44,793.43 511.32,1030.97 "/>
    <polygon class="fil1" points="71.36,1624.72 265.56,1624.72 610.24,791.99 416.03,791.99 "/>
    <polygon class="fil1" points="1198.62,479.72 930.71,479.72 1169.91,1054.98 1300.9,726.8 "/>
    <polygon class="fil1" points="452.95,1629.93 721.19,1629.93 1197.28,479.72 929.03,479.72 "/>
    <polygon class="fil1" points="2371.19,1631.6 2047.94,1631.6 1474.22,245.52 1797.48,245.52 "/>
    <polygon class="fil1" points="898.88,1631.6 1222.13,1631.6 1795.85,245.52 1472.6,245.52 "/>
    <polygon class="fil1" points="1447.79,1253.07 1702.81,977.23 1822.51,1253.07 "/>
    <polygon class="fil0" points="2512.28,254.47 2697.04,693.11 2881.81,254.47 "/>
    <polygon class="fil1" points="2002.24,255.26 2423.81,255.26 2609.4,687.06 2187.84,687.06 "/>
    <polygon class="fil1" points="3384.22,253.99 2962.66,253.99 2777.06,685.79 3198.62,685.79 "/>
    <g>
     <path class="fil0" d="M2506.13 1169.52l190.49 -423.46 190.49 423.46 -190.49 423.48 -190.49 -423.48zm0 0l380.98 0 -380.98 0z"/>
    </g>
   </g>
   <polygon class="fil2" style="mask:url(#id0)" points="622.58,793.14 417.25,793.14 605.99,1263.96 712.86,1003.98 "/>
   <polygon class="fil3" points="76.12,1625.87 268.99,1625.87 611.29,793.14 418.42,793.14 "/>
   <polygon class="fil2" style="mask:url(#id2)" points="1195.61,480.87 929.55,480.87 1167.1,1056.13 1297.19,727.95 "/>
   <polygon class="fil3" points="455.08,1631.08 721.48,1631.08 1194.28,480.87 927.89,480.87 "/>
   <polygon class="fil2" style="mask:url(#id4)" points="2370.66,1632.75 2045.83,1632.75 1469.32,246.67 1794.15,246.67 "/>
   <polygon class="fil3" points="897.94,1632.75 1218.97,1632.75 1788.73,246.67 1467.7,246.67 "/>
   <polygon class="fil4" points="1447.79,1253.07 1706.82,970.95 1828.4,1253.07 "/>
   <polygon class="fil5" style="mask:url(#id6)" points="2500.23,255.62 2693.68,694.26 2887.14,255.62 "/>
   <g id="_2749297345152">
    <polygon class="fil6" style="mask:url(#id8)" points="2506.13,1169.53 2696.62,730.88 2887.11,1169.53 "/>
    <polygon class="fil7" style="mask:url(#id10)" points="2506.13,1168.06 2696.62,1606.71 2887.11,1168.06 "/>
   </g>
   <polygon class="fil4" style="mask:url(#id12)" points="1993.7,251.88 2412.36,251.88 2596.68,694.26 2178.02,694.26 "/>
   <polygon class="fil4" style="mask:url(#id14)" points="3386.66,251.88 2968,251.88 2783.68,694.26 3202.34,694.26 "/>
  </g>
 </g>
</svg>
