<?xml version="1.0" encoding="UTF-8"?>
<!DOCTYPE svg PUBLIC "-//W3C//DTD SVG 1.1//EN" "http://www.w3.org/Graphics/SVG/1.1/DTD/svg11.dtd">
<!-- Creator: CorelDRAW 2019 (64 Bit Versão de avaliação) -->
<svg xmlns="http://www.w3.org/2000/svg" xml:space="preserve" width="67.7332mm" height="67.7332mm" version="1.1" style="shape-rendering:geometricPrecision; text-rendering:geometricPrecision; image-rendering:optimizeQuality; fill-rule:evenodd; clip-rule:evenodd"
viewBox="0 0 6773.32 6773.32"
 xmlns:xlink="http://www.w3.org/1999/xlink">
 <defs>
  <style type="text/css">
   <![CDATA[
    .str0 {stroke:black;stroke-width:176.39;stroke-miterlimit:22.9256}
    .str1 {stroke:black;stroke-width:176.39;stroke-miterlimit:22.9256}
    .fil4 {fill:none}
    .fil3 {fill:black}
    .fil0 {fill:#990099}
    .fil1 {fill:#9900CC}
    .fil2 {fill:#FE00E8}
   ]]>
  </style>
 </defs>
 <g id="Camada_x0020_1">
  <metadata id="CorelCorpID_0Corel-Layer"/>
  <g id="_1559506770832">
   <path class="fil0 str0" d="M1246.3 947.61l4711.46 0c92.55,0 168.26,75.71 168.26,168.26l0 3365.33c0,92.55 -75.71,168.26 -168.26,168.26l-4711.46 0c-92.55,0 -168.26,-75.71 -168.26,-168.26l0 -3365.33c0,-92.55 75.71,-168.26 168.26,-168.26z"/>
   <path class="fil1 str0" d="M1472.53 2021.29l4933.64 0c96.91,0 176.2,79.29 176.2,176.2l0 3524.03c0,96.91 -79.29,176.19 -176.2,176.19l-4933.64 0c-96.91,0 -176.19,-79.28 -176.19,-176.19l0 -3524.03c0,-96.91 79.28,-176.2 176.19,-176.2z"/>
   <path class="fil1 str1" d="M1078.05 5975.68c518.86,0 939.48,-420.62 939.48,-939.48 0,-518.87 -420.62,-939.49 -939.48,-939.49 -518.87,0 -939.49,420.62 -939.49,939.49 0,518.86 420.62,939.48 939.49,939.48z"/>
   <path class="fil0 str1" d="M1078.04 4377.16c518.87,0 939.49,-420.62 939.49,-939.48 0,-518.86 -420.62,-939.48 -939.49,-939.48 -518.86,0 -939.48,420.62 -939.48,939.48 0,518.86 420.62,939.48 939.48,939.48z"/>
   <path class="fil2 str1" d="M1078.04 2778.63c518.87,0 939.49,-420.62 939.49,-939.48 0,-518.86 -420.62,-939.48 -939.49,-939.48 -518.86,0 -939.48,420.62 -939.48,939.48 0,518.86 420.62,939.48 939.48,939.48z"/>
   <g>
    <path class="fil3" d="M2598.33 2734.8c320.07,-80.75 1529.07,-6.41 1920.99,-4.99 362.87,1.31 1572.56,-13.68 1554.28,10.1l-156.58 203.68 -1.21 0.88 1.19 -1.54c-4.74,-22.83 -1194.83,-8.13 -1554.26,-9.45 -391.91,-1.41 -1600.92,-75.76 -1920.99,4.99l156.58 -203.67z"/>
   </g>
   <path class="fil4" d="M2520.05 2836.63c320.06,-80.74 1529.06,-6.41 1920.98,-4.98 367.27,1.33 1602.02,-14.05 1553.08,10.98"/>
   <g>
    <path class="fil3" d="M2589.24 3896.2c320.06,-80.75 1529.07,-6.41 1920.98,-4.99 362.87,1.32 1572.56,-13.68 1554.29,10.11l-156.59 203.67 -1.2 0.89 1.18 -1.55c-4.73,-22.83 -1194.82,-8.13 -1554.26,-9.44 -391.91,-1.42 -1600.92,-75.76 -1920.98,4.99l156.58 -203.68z"/>
   </g>
   <path class="fil4" d="M2510.95 3998.03c320.07,-80.73 1529.07,-6.4 1920.99,-4.98 367.26,1.33 1602.02,-14.05 1553.08,10.98"/>
   <g>
    <path class="fil3" d="M2580.14 5057.61c320.06,-80.75 1529.07,-6.41 1920.99,-5 362.87,1.32 1572.56,-13.67 1554.28,10.11l-156.59 203.68 -1.2 0.88 1.19 -1.54c-4.74,-22.83 -1194.83,-8.13 -1554.26,-9.45 -391.92,-1.42 -1600.92,-75.76 -1920.99,4.99l156.58 -203.67z"/>
   </g>
   <path class="fil4" d="M2501.86 5159.44c320.06,-80.74 1529.06,-6.41 1920.98,-4.98 367.27,1.33 1602.02,-14.05 1553.08,10.98"/>
  </g>
 </g>
</svg>
