<?xml version="1.0" encoding="UTF-8"?>
<!DOCTYPE svg PUBLIC "-//W3C//DTD SVG 1.1//EN" "http://www.w3.org/Graphics/SVG/1.1/DTD/svg11.dtd">
<!-- Creator: CorelDRAW 2019 (64 Bit Versão de avaliação) -->
<svg xmlns="http://www.w3.org/2000/svg" xml:space="preserve" width="67.7332mm" height="67.7332mm" version="1.1" style="shape-rendering:geometricPrecision; text-rendering:geometricPrecision; image-rendering:optimizeQuality; fill-rule:evenodd; clip-rule:evenodd"
viewBox="0 0 6773.32 6773.32"
 xmlns:xlink="http://www.w3.org/1999/xlink">
 <defs>
  <style type="text/css">
   <![CDATA[
    .fil2 {fill:#9900CC;fill-rule:nonzero}
    .fil1 {fill:#FF0066;fill-rule:nonzero}
    .fil0 {fill:white;fill-rule:nonzero}
   ]]>
  </style>
     <clipPath id="id0">
      <path d="M166.94 558.32l6333.78 -26.2 0 1403.18 -6333.78 26.2 0 -1403.18z"/>
     </clipPath>
     <clipPath id="id1">
      <path d="M261.08 2155.83l1343.86 -17.03 0 1100.51 -1343.86 17.03 0 -1100.51z"/>
     </clipPath>
     <clipPath id="id2">
      <path d="M228.59 3583.79l1748.52 -3.08 0 1098.09 -1748.52 3.08 0 -1098.09z"/>
     </clipPath>
     <clipPath id="id3">
      <path d="M263.14 5053.6l5173.43 -11.51 0 853.19 -5173.43 11.51 0 -853.19z"/>
     </clipPath>
     <clipPath id="id4">
      <path d="M5750.62 4710.56l792.32 -1.2 0 1172.2 -792.32 1.2 0 -1172.2z"/>
     </clipPath>
 </defs>
 <g id="Camada_x0020_1">
  <metadata id="CorelCorpID_0Corel-Layer"/>
  <g id="_2753255017296">
   <g>
    <g style="clip-path:url(#id0)">
     <image x="166.94" y="532.12" width="6333.78" height="1429.38" xlink:href="PROP1_Images\PROP1_ImgID1.png"/>
    </g>
   </g>
   <path class="fil0" d="M463.75 960l-135.59 0 360.15 820.93 336.84 -820.93 -133.46 0 -206.56 517.98 -221.38 -517.98zm938.51 785.97c52.96,0 104.86,-10.59 153.59,-30.72 46.61,-20.12 87.92,-48.72 124.99,-84.74 36.02,-36.01 63.56,-77.33 83.68,-124.99 20.13,-47.67 30.72,-99.57 30.72,-152.54 0,-52.96 -10.59,-104.86 -30.72,-153.59 -20.12,-46.61 -47.66,-87.92 -83.68,-124.99 -37.07,-36.02 -78.38,-63.56 -124.99,-83.68 -48.73,-20.13 -100.63,-30.72 -153.59,-30.72 -52.97,0 -104.87,10.59 -152.54,30.72 -47.66,20.12 -88.98,47.66 -124.99,83.68 -36.02,37.07 -64.62,78.38 -84.74,124.99 -20.13,48.73 -30.72,100.63 -30.72,153.59 0,52.97 10.59,104.87 30.72,152.54 20.12,47.66 48.72,88.98 84.74,124.99 36.01,36.02 77.33,64.62 124.99,84.74 47.67,20.13 99.57,30.72 152.54,30.72zm0 -663.1c72.03,0 139.82,28.6 190.66,79.45 50.85,50.84 79.45,118.63 79.45,190.66 0,72.03 -28.6,139.83 -79.45,190.67 -50.84,50.85 -118.63,79.45 -190.66,79.45 -72.03,0 -139.83,-28.6 -190.67,-79.45 -50.85,-50.84 -79.45,-118.64 -79.45,-190.67 0,-72.03 28.6,-139.82 79.45,-190.66 50.84,-50.85 118.64,-79.45 190.67,-79.45zm1109.04 431.12c-8.48,10.59 -16.95,20.13 -26.48,29.66 -50.85,50.85 -118.64,79.45 -190.67,79.45 -72.03,0 -139.82,-28.6 -190.67,-79.45 -50.84,-50.84 -79.44,-118.64 -79.44,-190.67 0,-72.03 28.6,-139.82 79.44,-190.66 50.85,-51.91 118.64,-79.45 190.67,-79.45 63.56,0 122.87,21.19 170.54,60.38l0 -145.12c-5.29,-2.12 -11.65,-5.29 -16.95,-7.41 -48.72,-21.19 -100.63,-30.72 -153.59,-30.72 -52.96,0 -104.87,9.53 -152.53,30.72 -47.67,19.06 -88.98,47.66 -125,83.68 -36.01,36.01 -64.61,78.38 -84.74,124.99 -20.12,48.73 -30.71,100.63 -30.71,153.59 0,52.97 10.59,104.87 30.71,152.54 20.13,47.66 48.73,88.98 84.74,124.99 36.02,36.02 77.33,64.62 125,84.74 47.66,20.13 99.57,30.72 152.53,30.72 52.96,0 104.87,-10.59 153.59,-30.72 22.25,-9.53 43.43,-21.18 63.56,-33.89l0 -167.37zm262.7 -443.83l348.49 0 0 -110.16 -349.55 0 0 0 -121.82 0 0 785.97 121.82 0 0 0 349.55 0 0 -111.22 -348.49 0 0 -243.63 287.06 0 0 -111.22 -287.06 0 0 -209.74zm220.32 -226.68l-103.8 -123.93 -110.17 122.87 41.31 37.08 66.74 -75.21 63.55 75.21 42.37 -36.02zm1313.49 662.04c21.18,-47.67 30.72,-99.57 30.72,-152.54 0,-52.96 -9.54,-104.86 -30.72,-153.59 -20.13,-46.61 -47.67,-88.98 -83.68,-124.99 -36.02,-36.02 -78.39,-63.56 -125,-83.68 -48.72,-21.19 -100.63,-30.72 -153.59,-30.72 -52.96,0 -104.87,9.53 -152.53,30.72 -47.67,20.12 -88.98,47.66 -125,83.68 -36.01,36.01 -64.61,78.38 -84.74,124.99 -20.12,48.73 -30.71,100.63 -30.71,153.59 0,52.97 10.59,104.87 30.71,152.54 20.13,47.66 48.73,88.98 84.74,124.99 36.02,36.02 77.33,64.62 125,84.74 47.66,20.13 99.57,30.72 152.53,30.72 52.96,0 104.87,-10.59 153.59,-30.72 8.48,-4.24 18.01,-8.47 26.48,-12.71l72.03 96.39 88.98 -66.73 -70.97 -93.22c3.18,-3.17 5.3,-5.29 8.48,-8.47 36.01,-36.01 63.55,-77.33 83.68,-124.99zm-362.27 117.58c-72.03,0 -139.82,-28.6 -190.67,-79.45 -50.84,-50.84 -79.44,-118.64 -79.44,-190.67 0,-72.03 28.6,-139.82 79.44,-190.66 50.85,-50.85 118.64,-79.45 190.67,-79.45 72.03,0 139.82,28.6 190.67,79.45 50.84,50.84 79.44,118.63 79.44,190.66 0,69.92 -26.48,135.59 -74.15,186.43l-57.2 -77.32 -88.97 66.73 55.08 73.09c-32.84,13.77 -67.8,21.19 -104.87,21.19zm805.03 122.87c74.15,0 143,-22.24 194.91,-62.5 29.66,-23.3 52.96,-51.9 69.91,-84.74 16.95,-36.01 26.48,-76.26 26.48,-119.69l0 -519.04 -123.93 0 0 519.04c0,46.6 -15.89,82.62 -47.67,106.98 -30.72,23.31 -74.15,37.08 -119.7,37.08 -46.6,0 -90.03,-13.77 -119.69,-37.08 -31.78,-24.36 -48.73,-60.38 -48.73,-106.98l0 -519.04 -122.87 0 0 519.04c0,43.43 8.47,83.68 26.48,119.69 15.89,32.84 39.19,61.44 69.91,84.74 51.9,40.26 120.76,62.5 194.9,62.5zm570.95 -675.81l348.49 0 0 -110.16 -349.55 0 0 0 -121.82 0 0 785.97 121.82 0 0 0 349.55 0 0 -111.22 -348.49 0 0 -243.63 287.06 0 0 -111.22 -287.06 0 0 -209.74zm831.52 391.93c42.37,-14.83 72.03,-39.19 91.09,-60.38 41.31,-45.55 63.56,-109.1 63.56,-181.13 0,-73.09 -22.25,-136.65 -63.56,-182.2 -31.78,-36.01 -92.15,-78.38 -195.96,-78.38l-129.23 0 0 0 -103.81 0 0 785.97 122.88 0 0 -265.87 90.03 0 198.09 265.87 138.76 0 -211.85 -283.88zm-215.03 -92.16l0 -298.71 110.16 0c50.84,0 88.98,13.77 113.34,41.31 29.66,31.78 34.96,76.27 34.96,108.05 0,30.72 -5.3,75.2 -34.96,106.98 -24.36,27.54 -62.5,42.37 -113.34,42.37l-110.16 0z"/>
   <g>
    <g style="clip-path:url(#id1)">
     <image x="261.08" y="2138.8" width="1343.86" height="1117.54" xlink:href="PROP1_Images\PROP1_ImgID2.png"/>
    </g>
   </g>
   <path class="fil0" d="M858.44 2844.09c-12.33,-39.24 -37,-76.24 -72.88,-108.76 -17.94,-16.82 -42.61,-40.37 -62.79,-60.55l0 0 -139.04 -133.43c-34.76,-33.64 -35.88,-59.43 -31.39,-75.12 6.72,-23.55 31.39,-42.61 60.55,-48.22 23.54,-4.48 67.27,-4.48 109.88,47.1l102.03 -81.86c-32.51,-39.24 -70.64,-67.27 -113.24,-84.09 -40.37,-14.58 -82.98,-17.94 -123.34,-8.97 -37,6.73 -71.76,23.55 -99.79,47.09 -30.28,25.79 -51.58,57.19 -61.67,93.07 -10.1,33.63 -8.97,70.64 2.24,105.39 11.21,35.89 32.51,69.52 63.91,99.8l102.03 96.43c4.49,4.48 65.04,63.91 102.04,98.67 23.55,22.42 49.33,56.06 38.12,94.18 -10.09,33.64 -44.85,61.67 -87.46,69.52 -24.66,5.61 -51.57,3.36 -76.24,-6.73 -30.28,-11.21 -58.31,-33.64 -81.85,-65.03l-103.16 80.73c39.24,50.46 85.22,85.22 137.92,106.52 31.39,12.33 65.03,17.94 98.67,17.94 16.82,0 33.63,-1.12 50.45,-4.49 90.83,-17.94 163.71,-81.85 187.25,-162.58 11.22,-38.12 10.09,-78.49 -2.24,-116.61zm266.86 -431.68l368.9 0 0 -116.61 -370.02 0 0 0 -128.94 0 0 831.97 128.94 0 0 0 370.02 0 0 -117.73 -368.9 0 0 -257.89 303.87 0 0 -117.73 -303.87 0 0 -222.01z"/>
   <path class="fil1" d="M2645.7 2040.55l0 241.36 -172.78 0 0 966.97 -294.16 0 0 -966.97 -174.2 0 0 -241.36 641.14 0zm736.82 708.3c0,121.44 -2.62,207.24 -8.09,257.65 -5.24,50.67 -21.9,96.75 -49.99,138.5 -28.08,41.76 -66.16,73.84 -113.99,96.24 -47.83,22.41 -103.53,33.61 -167.07,33.61 -60.45,0 -114.47,-10.69 -162.55,-31.83 -48.07,-21.13 -86.86,-52.7 -115.9,-94.96 -29.27,-42.27 -46.64,-88.35 -52.35,-137.99 -5.48,-49.91 -8.33,-136.98 -8.33,-261.22l0 -206.74c0,-121.44 2.61,-207.24 8.08,-257.65 5.24,-50.67 21.9,-96.75 49.98,-138.51 28.08,-41.75 66.17,-73.83 114,-96.24 47.84,-22.4 103.52,-33.6 167.07,-33.6 60.45,0 114.47,10.69 162.54,31.82 48.08,21.13 86.87,52.7 115.91,94.97 29.27,42.26 46.64,88.34 52.36,137.99 5.47,49.9 8.33,136.98 8.33,261.22l0 206.74zm-294.16 -396.93c0,-56.01 -2.85,-91.91 -8.57,-107.69 -5.71,-15.53 -17.37,-23.42 -34.98,-23.42 -14.99,0 -26.42,6.36 -34.51,19.09 -7.85,12.48 -11.9,49.9 -11.9,112.02l0 563.94c0,70.02 2.62,113.3 7.85,129.59 5.23,16.55 17.38,24.7 36.42,24.7 19.51,0 32.13,-9.42 37.59,-28.26 5.48,-18.84 8.1,-63.9 8.1,-134.94l0 -555.03zm404.58 -311.37l207.77 0c138.51,0 232.28,5.6 281.3,17.06 49.03,11.45 89.02,40.73 119.95,87.83 30.94,46.85 46.41,121.96 46.41,224.82 0,93.94 -10.94,157.08 -32.84,189.42 -21.66,32.33 -64.74,51.68 -128.99,58.05 58.06,15.53 97.33,36.15 117.33,62.12 19.99,25.71 32.37,49.65 37.13,71.29 4.99,21.64 7.37,81.21 7.37,178.73l0 319.01 -272.73 0 0 -402.01c0,-64.67 -4.76,-104.64 -14.29,-120.17 -9.28,-15.54 -34.03,-23.17 -74.25,-23.17l0 545.35 -294.16 0 0 -1208.33zm294.16 206.22l0 268.86c32.84,0 55.69,-4.84 68.78,-14.51 13.09,-9.68 19.76,-41.25 19.76,-94.46l0 -66.45c0,-38.44 -6.44,-63.65 -19.05,-75.61 -12.61,-11.97 -35.93,-17.83 -69.49,-17.83zm1130.22 -206.22l0 1208.33 -257.04 0 -152.78 -549.43 0 549.43 -245.61 0 0 -1208.33 245.61 0 164.21 544.08 0 -544.08 245.61 0zm624.49 0l168.02 1208.33 -300.11 0 -15.95 -216.92 -105.89 0 -15.95 216.92 -303.92 0 148.98 -1208.33 424.82 0zm-155.89 777.55c-14.04,-136.98 -28.79,-306.54 -44.5,-508.95 -29.04,232.2 -47.36,401.76 -55.22,508.95l99.72 0zm374.37 -777.55l207.77 0c138.5,0 232.27,5.6 281.29,17.06 49.03,11.45 89.02,40.73 119.95,87.83 30.94,46.85 46.41,121.96 46.41,224.82 0,93.94 -10.94,157.08 -32.83,189.42 -21.66,32.33 -64.75,51.68 -129,58.05 58.07,15.53 97.33,36.15 117.33,62.12 19.99,25.71 32.37,49.65 37.13,71.29 4.99,21.64 7.37,81.21 7.37,178.73l0 319.01 -272.73 0 0 -402.01c0,-64.67 -4.76,-104.64 -14.29,-120.17 -9.28,-15.54 -34.03,-23.17 -74.24,-23.17l0 545.35 -294.16 0 0 -1208.33zm294.16 206.22l0 268.86c32.83,0 55.68,-4.84 68.78,-14.51 13.08,-9.68 19.75,-41.25 19.75,-94.46l0 -66.45c0,-38.44 -6.43,-63.65 -19.04,-75.61 -12.61,-11.97 -35.94,-17.83 -69.49,-17.83z"/>
   <path class="fil2" d="M2752.37 3512.08l0 233.35 -178.71 0 0 934.89 -304.24 0 0 -934.89 -180.19 0 0 -233.35 663.14 0zm69.41 0l214.9 0c143.26,0 240.24,5.41 290.95,16.49 50.71,11.08 92.06,39.38 124.06,84.92 32,45.29 48,117.91 48,217.35 0,90.84 -11.32,151.88 -33.97,183.14 -22.4,31.26 -66.95,49.97 -133.41,56.13 60.06,15.01 100.67,34.95 121.35,60.06 20.68,24.86 33.48,48 38.4,68.92 5.17,20.92 7.63,78.52 7.63,172.8l0 308.43 -282.09 0 0 -388.68c0,-62.52 -4.92,-101.17 -14.77,-116.18 -9.6,-15.02 -35.2,-22.4 -76.8,-22.4l0 527.26 -304.25 0 0 -1168.24zm304.25 199.38l0 259.94c33.97,0 57.6,-4.68 71.14,-14.03 13.54,-9.36 20.43,-39.88 20.43,-91.33l0 -64.24c0,-37.17 -6.65,-61.54 -19.69,-73.11 -13.05,-11.57 -37.17,-17.23 -71.88,-17.23zm1015.13 -199.38l173.79 1168.24 -310.4 0 -16.49 -209.72 -109.54 0 -16.49 209.72 -314.34 0 154.09 -1168.24 439.38 0zm-161.23 751.75c-14.52,-132.43 -29.78,-296.37 -46.03,-492.06 -30.03,224.49 -48.98,388.43 -57.1,492.06l103.13 0zm387.2 -751.75l227.2 0c146.46,0 245.66,6.64 297.36,20.18 51.69,13.54 91.07,35.69 117.9,66.46 26.83,30.77 43.82,64.99 50.47,102.65 6.64,37.91 10.09,112 10.09,222.77l0 409.1c0,104.87 -4.93,175.02 -14.77,210.22 -9.85,35.44 -27.08,63.26 -51.45,83.2 -24.61,19.94 -54.89,33.72 -91.07,41.84 -35.94,7.88 -90.34,11.82 -162.96,11.82l-382.77 0 0 -1168.24zm304.25 199.38l0 769.48c43.08,0 69.66,-8.87 79.51,-26.34 10.09,-17.73 15.01,-65.48 15.01,-143.51l0 -454.4c0,-52.92 -1.72,-86.89 -4.92,-101.91 -3.45,-15.01 -10.83,-25.84 -22.89,-32.73 -11.82,-7.14 -33.97,-10.59 -66.71,-10.59zm511.99 -199.38l506.59 0 0 233.35 -202.34 0 0 223.01 189.05 0 0 221.54 -189.05 0 0 256.99 223.01 0 0 233.35 -527.26 0 0 -1168.24zm613.66 0l214.9 0c143.26,0 240.24,5.41 290.95,16.49 50.71,11.08 92.06,39.38 124.06,84.92 32,45.29 48,117.91 48,217.35 0,90.84 -11.32,151.88 -33.97,183.14 -22.4,31.26 -66.95,49.97 -133.41,56.13 60.06,15.01 100.67,34.95 121.35,60.06 20.68,24.86 33.48,48 38.4,68.92 5.17,20.92 7.63,78.52 7.63,172.8l0 308.43 -282.09 0 0 -388.68c0,-62.52 -4.92,-101.17 -14.77,-116.18 -9.6,-15.02 -35.2,-22.4 -76.8,-22.4l0 527.26 -304.25 0 0 -1168.24zm304.25 199.38l0 259.94c33.97,0 57.6,-4.68 71.14,-14.03 13.54,-9.36 20.43,-39.88 20.43,-91.33l0 -64.24c0,-37.17 -6.65,-61.54 -19.69,-73.11 -13.05,-11.57 -37.17,-17.23 -71.88,-17.23z"/>
   <g>
    <g style="clip-path:url(#id2)">
     <image x="228.59" y="3580.71" width="1748.52" height="1101.17" xlink:href="PROP1_Images\PROP1_ImgID3.png"/>
    </g>
   </g>
   <path class="fil0" d="M652.89 4554.96c76.19,0 146.95,-22.86 200.29,-64.22 30.47,-23.95 54.42,-53.34 71.84,-87.08 17.41,-37.01 27.21,-78.38 27.21,-123.01l0 -533.37 -127.36 0 0 533.37c0,47.9 -16.32,84.91 -48.98,109.94 -31.57,23.95 -76.2,38.1 -123,38.1 -47.9,0 -92.53,-14.15 -123,-38.1 -32.66,-25.03 -50.08,-62.04 -50.08,-109.94l0 -533.37 -126.27 0 0 533.37c0,44.63 8.71,86 27.22,123.01 16.33,33.74 40.27,63.13 71.84,87.08 53.34,41.36 124.09,64.22 200.29,64.22zm1220.23 0l0 -844.69 -379.89 566.03 -379.9 -566.03 0 844.69 126.27 0 0 -428.88 253.63 376.63 252.53 -376.63 0 428.88 127.36 0z"/>
   <g>
    <g style="clip-path:url(#id3)">
     <image x="263.14" y="5042.09" width="5173.43" height="864.7" xlink:href="PROP1_Images\PROP1_ImgID4.png"/>
    </g>
   </g>
   <path class="fil0" d="M758.43 5259.61c-27.81,-31.29 -62.58,-55.63 -103.44,-71.28 -41.72,-17.38 -88.67,-25.21 -140.82,-25.21l-52.16 0 0 0 -100.84 0 0 645.01 33.91 0 119.09 0c52.15,0 99.1,-8.69 140.82,-25.21 40.86,-15.65 75.63,-39.99 103.44,-71.28 51.29,-56.5 78.24,-134.74 78.24,-226.01 0,-91.28 -26.95,-169.51 -78.24,-226.02zm-74.75 384.23c-38.25,41.72 -94.75,63.45 -169.51,63.45l-52.16 0 0 -443.33 52.16 0c74.76,0 131.26,20.86 169.51,63.46 33.9,37.38 52.15,92.14 52.15,158.21 0,65.19 -18.25,120.83 -52.15,158.21zm365.09 -390.31l285.99 0 0 -90.41 -286.86 0 0 0 -99.97 0 0 645.01 99.97 0 0 0 286.86 0 0 -91.27 -285.99 0 0 -199.94 235.58 0 0 -91.27 -235.58 0 0 -172.12zm1005.75 334.67c-9.56,-30.42 -28.68,-59.11 -56.5,-84.32 -13.91,-13.04 -33.03,-31.29 -48.68,-46.94l0 0 -107.79 -103.44c-26.95,-26.08 -27.82,-46.08 -24.34,-58.25 5.21,-18.25 24.34,-33.03 46.94,-37.37 18.25,-3.48 52.16,-3.48 85.19,36.51l79.1 -63.46c-25.21,-30.43 -54.76,-52.16 -87.79,-65.2 -31.3,-11.3 -64.33,-13.91 -95.62,-6.95 -28.69,5.21 -55.64,18.25 -77.37,36.51 -23.47,19.99 -39.99,44.33 -47.81,72.15 -7.82,26.08 -6.95,54.76 1.74,81.71 8.69,27.82 25.21,53.9 49.55,77.37l79.1 74.75c3.48,3.48 50.42,49.55 79.11,76.5 18.25,17.39 38.24,43.46 29.55,73.02 -7.82,26.08 -34.77,47.81 -67.8,53.9 -19.13,4.34 -39.99,2.6 -59.11,-5.22 -23.47,-8.69 -45.21,-26.08 -63.46,-50.42l-79.97 62.59c30.42,39.12 66.06,66.07 106.92,82.58 24.34,9.56 50.42,13.91 76.49,13.91 13.04,0 26.08,-0.87 39.12,-3.48 70.41,-13.91 126.92,-63.45 145.17,-126.04 8.69,-29.56 7.82,-60.85 -1.74,-90.41zm338.15 219.93c60.85,0 117.35,-18.25 159.95,-51.29 24.34,-19.12 43.46,-42.59 57.37,-69.54 13.91,-29.56 21.73,-62.59 21.73,-98.23l0 -425.95 -101.7 0 0 425.95c0,38.25 -13.04,67.81 -39.12,87.8 -25.21,19.12 -60.85,30.42 -98.23,30.42 -38.25,0 -73.89,-11.3 -98.23,-30.42 -26.08,-19.99 -39.98,-49.55 -39.98,-87.8l0 -425.95 -100.84 0 0 425.95c0,35.64 6.95,68.67 21.73,98.23 13.04,26.95 32.16,50.42 57.37,69.54 42.6,33.04 99.1,51.29 159.95,51.29zm841.46 -190.37c-6.95,8.69 -13.91,16.51 -21.73,24.34 -41.73,41.72 -97.36,65.19 -156.47,65.19 -59.11,0 -114.75,-23.47 -156.47,-65.19 -41.73,-41.73 -65.2,-97.36 -65.2,-156.47 0,-59.11 23.47,-114.75 65.2,-156.47 41.72,-42.6 97.36,-65.2 156.47,-65.2 52.16,0 100.84,17.39 139.95,49.55l0 -119.09c-4.34,-1.74 -9.56,-4.35 -13.91,-6.09 -39.98,-17.38 -82.58,-25.21 -126.04,-25.21 -43.46,0 -86.06,7.83 -125.18,25.21 -39.11,15.65 -73.02,39.12 -102.57,68.68 -29.56,29.55 -53.03,64.32 -69.54,102.57 -16.52,39.99 -25.21,82.58 -25.21,126.05 0,43.46 8.69,86.06 25.21,125.17 16.51,39.12 39.98,73.02 69.54,102.58 29.55,29.55 63.46,53.02 102.57,69.54 39.12,16.52 81.72,25.21 125.18,25.21 43.46,0 86.06,-8.69 126.04,-25.21 18.26,-7.82 35.65,-17.38 52.16,-27.82l0 -137.34zm215.58 -364.23l285.99 0 0 -90.41 -286.86 0 0 0 -99.97 0 0 645.01 99.97 0 0 0 286.86 0 0 -91.27 -285.99 0 0 -199.94 235.58 0 0 -91.27 -235.58 0 0 -172.12zm744.97 334.67c-9.56,-30.42 -28.68,-59.11 -56.5,-84.32 -13.91,-13.04 -33.03,-31.29 -48.68,-46.94l0 0 -107.79 -103.44c-26.95,-26.08 -27.82,-46.08 -24.34,-58.25 5.21,-18.25 24.34,-33.03 46.94,-37.37 18.25,-3.48 52.16,-3.48 85.19,36.51l79.1 -63.46c-25.21,-30.43 -54.76,-52.16 -87.79,-65.2 -31.3,-11.3 -64.33,-13.91 -95.62,-6.95 -28.69,5.21 -55.64,18.25 -77.37,36.51 -23.47,19.99 -39.99,44.33 -47.81,72.15 -7.82,26.08 -6.95,54.76 1.74,81.71 8.69,27.82 25.21,53.9 49.55,77.37l79.1 74.75c3.48,3.48 50.42,49.55 79.11,76.5 18.25,17.39 38.24,43.46 29.55,73.02 -7.82,26.08 -34.77,47.81 -67.8,53.9 -19.13,4.34 -39.99,2.6 -59.11,-5.22 -23.47,-8.69 -45.21,-26.08 -63.46,-50.42l-79.97 62.59c30.42,39.12 66.06,66.07 106.92,82.58 24.34,9.56 50.42,13.91 76.49,13.91 13.04,0 26.08,-0.87 39.12,-3.48 70.41,-13.91 126.92,-63.45 145.17,-126.04 8.69,-29.56 7.82,-60.85 -1.74,-90.41zm438.99 0c-9.56,-30.42 -28.68,-59.11 -56.5,-84.32 -13.91,-13.04 -33.03,-31.29 -48.68,-46.94l0 0 -107.79 -103.44c-26.95,-26.08 -27.82,-46.08 -24.34,-58.25 5.21,-18.25 24.34,-33.03 46.94,-37.37 18.25,-3.48 52.16,-3.48 85.19,36.51l79.1 -63.46c-25.21,-30.43 -54.76,-52.16 -87.79,-65.2 -31.3,-11.3 -64.33,-13.91 -95.62,-6.95 -28.69,5.21 -55.64,18.25 -77.37,36.51 -23.47,19.99 -39.99,44.33 -47.81,72.15 -7.82,26.08 -6.95,54.76 1.74,81.71 8.69,27.82 25.21,53.9 49.55,77.37l79.1 74.75c3.48,3.48 50.42,49.55 79.11,76.5 18.25,17.39 38.24,43.46 29.55,73.02 -7.82,26.08 -34.77,47.81 -67.8,53.9 -19.13,4.34 -39.99,2.6 -59.11,-5.22 -23.47,-8.69 -45.21,-26.08 -63.46,-50.42l-79.97 62.59c30.42,39.12 66.06,66.07 106.92,82.58 24.34,9.56 50.42,13.91 76.49,13.91 13.04,0 26.08,-0.87 39.12,-3.48 70.41,-13.91 126.92,-63.45 145.17,-126.04 8.69,-29.56 7.82,-60.85 -1.74,-90.41zm403.34 219.93c43.47,0 86.06,-8.69 126.05,-25.21 38.25,-16.52 72.15,-39.99 102.57,-69.54 29.56,-29.56 52.16,-63.46 68.68,-102.58 16.51,-39.11 25.21,-81.71 25.21,-125.17 0,-43.47 -8.7,-86.06 -25.21,-126.05 -16.52,-38.25 -39.12,-72.15 -68.68,-102.57 -30.42,-29.56 -64.32,-52.16 -102.57,-68.68 -39.99,-16.51 -82.58,-25.21 -126.05,-25.21 -43.46,0 -86.05,8.7 -125.17,25.21 -39.12,16.52 -73.02,39.12 -102.58,68.68 -29.55,30.42 -53.02,64.32 -69.54,102.57 -16.52,39.99 -25.21,82.58 -25.21,126.05 0,43.46 8.69,86.06 25.21,125.17 16.52,39.12 39.99,73.02 69.54,102.58 29.56,29.55 63.46,53.02 102.58,69.54 39.12,16.52 81.71,25.21 125.17,25.21zm0 -544.17c59.12,0 114.75,23.47 156.47,65.2 41.73,41.72 65.2,97.36 65.2,156.47 0,59.11 -23.47,114.74 -65.2,156.47 -41.72,41.72 -97.35,65.19 -156.47,65.19 -59.11,0 -114.74,-23.47 -156.47,-65.19 -41.72,-41.73 -65.19,-97.36 -65.19,-156.47 0,-59.11 23.47,-114.75 65.19,-156.47 41.73,-41.73 97.36,-65.2 156.47,-65.2z"/>
   <g>
    <g style="clip-path:url(#id4)">
     <image x="5750.62" y="4709.36" width="792.32" height="1173.4" xlink:href="PROP1_Images\PROP1_ImgID5.png"/>
    </g>
   </g>
   <path class="fil0" d="M6109.26 5621.66c-45.56,0 -82.5,37.96 -82.5,84.77 0,46.81 36.94,84.76 82.5,84.76 45.56,0 82.51,-37.95 82.51,-84.76 0,-46.81 -36.95,-84.77 -82.51,-84.77zm293.09 -705.95c-51.73,-70.84 -146.55,-113.86 -249.99,-113.86 -33.25,0 -66.5,5.06 -98.51,13.92 -61.58,16.44 -113.29,49.34 -150.24,94.88 -38.18,46.81 -59.1,106.27 -61.57,173.33l151.47 0c1.22,-39.22 13.55,-70.85 34.47,-94.89 17.25,-20.24 41.88,-34.16 71.43,-41.75 16.01,-5.06 34.48,-7.59 52.95,-7.59 17.24,0 34.49,2.53 50.49,6.33 32.02,8.85 57.87,24.03 72.66,45.54 18.46,25.3 22.16,59.46 8.61,98.68 -12.31,39.22 -39.4,80.97 -78.81,126.52 -3.69,3.79 -9.85,10.12 -17.24,16.44 -38.17,40.49 -70.19,82.24 -93.59,126.52 -35.71,64.52 -54.18,131.57 -57.87,202.42 14.77,-8.86 39.4,-17.71 73.88,-17.71 36.94,0 62.81,10.12 77.58,17.71 2.46,-48.08 16.01,-94.89 39.41,-139.17 18.47,-34.15 43.1,-65.78 73.88,-97.41 8.62,-8.86 16.01,-16.45 22.17,-22.77 64.03,-73.38 102.21,-144.23 115.76,-211.28 12.31,-64.52 -1.24,-126.52 -36.94,-175.86z"/>
  </g>
 </g>
</svg>
